<svg height="512" viewBox="0 0 64 64" width="512" xmlns="http://www.w3.org/2000/svg"><g id="Paper_Plane" data-name="Paper Plane"><path d="m63.61 5.21a1.0038 1.0038 0 0 0 -.95-.15l-61.9 14.97a1.0064 1.0064 0 0 0 -.74.76.9893.9893 0 0 0 .36.99l14.07 11.16-.45 25.04a1.0011 1.0011 0 0 0 1.68.75l13.76-12.88 9.85 9.86a1.0014 1.0014 0 0 0 1.62-.29l23-49a1.009 1.009 0 0 0 -.3-1.21zm-60.38 16.28 52.87-12.79-40.54 22.56zm13.22 11.57 37.43-20.84-30.98 25.54a.9345.9345 0 0 0 -.28.37l-6.53 14.89zm1.42 20.88 5.99-13.66 4.16 4.15zm21.83-.65-14.68-14.68 35.19-29.01z"/></g></svg>