<svg height="512" viewBox="0 0 64 64" width="512" xmlns="http://www.w3.org/2000/svg"><g fill-rule="evenodd"><path d="m48 64h-32a16.0007 16.0007 0 0 1 -16-16v-32a16.0007 16.0007 0 0 1 16-16h32a16 16 0 0 1 16 16v32a16 16 0 0 1 -16 16" fill="#e60019"/><path d="m30 18h18a9.0006 9.0006 0 0 0 .92-17.954c-.306-.017-.609-.046-.92-.046h-32a16.0007 16.0007 0 0 0 -16 16v32a30.0007 30.0007 0 0 1 30-30" fill="#ff1e37"/><path d="m48 32a16 16 0 1 0 16 16v-32a16 16 0 0 1 -16 16" fill="#c80000"/></g><path d="m32.018 10a21.9834 21.9834 0 0 0 -8.028 42.462 21.1371 21.1371 0 0 1 .073-6.314c.398-1.719 2.573-10.928 2.573-10.928a7.9846 7.9846 0 0 1 -.653-3.256c0-3.058 1.776-5.337 3.987-5.337 1.885 0 2.791 1.411 2.791 3.093 0 1.882-1.196 4.704-1.83 7.328a3.1984 3.1984 0 0 0 3.262 3.98c3.914 0 6.922-4.125 6.922-10.059 0-5.265-3.787-8.938-9.206-8.938a9.5219 9.5219 0 0 0 -9.949 9.535 8.57 8.57 0 0 0 1.631 5.011.6512.6512 0 0 1 .145.634c-.163.687-.543 2.189-.616 2.496-.09.398-.326.489-.743.29-2.754-1.285-4.476-5.283-4.476-8.522 0-6.929 5.038-13.297 14.552-13.297 7.629 0 13.573 5.427 13.573 12.7 0 7.581-4.784 13.678-11.417 13.678-2.228 0-4.331-1.158-5.037-2.533 0 0-1.106 4.197-1.378 5.229a23.9256 23.9256 0 0 1 -2.736 5.771 22.0077 22.0077 0 1 0 6.56-43.023z" fill="#fff"/></svg>