<svg fill="#333" height="512" viewBox="0 0 176 176" width="512" xmlns="http://www.w3.org/2000/svg"><g id="Layer_2" data-name="Layer 2"><g id="_14.tiktok" data-name="14.tiktok"><path id="background" d="m144.52 173a532.59 532.59 0 0 1 -113 0 32.07 32.07 0 0 1 -28.52-28.48 532.59 532.59 0 0 1 0-113 32.07 32.07 0 0 1 28.48-28.52 532.59 532.59 0 0 1 113 0 32.07 32.07 0 0 1 28.52 28.48 532.59 532.59 0 0 1 0 113 32.07 32.07 0 0 1 -28.48 28.52z" fill="#333"/><path id="icon" d="m74.73 143a35.1 35.1 0 0 1 0-70.2h8.57v17.13h-8.57a18 18 0 1 0 18 18v-74.93h17.13v8.56a18 18 0 0 0 18 18h8.57v17.1h-8.63a34.72 34.72 0 0 1 -18-5v36.24a35.13 35.13 0 0 1 -35.07 35.1z" fill="#fff"/></g></g></svg>