 <svg id="Capa_1" enable-background="new 0 0 453.54 453.54" height="512" viewBox="0 0 453.54 453.54" width="512" xmlns="http://www.w3.org/2000/svg"><g><path d="m453.542 119.091v215.341c0 65.777-53.314 119.11-119.092 119.11h-215.342c-65.777 0-119.11-53.333-119.11-119.11v-215.341c0-65.777 53.333-119.093 119.11-119.093h215.342c65.778 0 119.092 53.315 119.092 119.093z" fill="#374661"/><path d="m453.542 305.062v29.37c0 65.777-53.314 119.11-119.092 119.11h-31.449l-66.168-59.84c-7.947-5.103-13.849-11.448-18.222-18.098l-25.761-36.409c-15.751-20.71-15.11-46.239-15.11-46.239v-53.279l-35.556-40.054v-28.444c39.111-11.555 38.222-81.776 38.222-81.776h50.223l30.914 42.044z" fill="#1d213d"/><path d="m230.623 89.405v73.777h32.444v36.444h-32.444v84.442c-.333 32.889 26.667 32.222 26.667 32.222 23.999.223 29.416-8.813 29.416-8.813l24.658 33.777c-22.52 27.257-61.63 23.924-61.63 23.924-73.777-2.295-72-72.222-72-72.222v-93.331h-35.554v-28.444c39.11-11.556 38.222-81.777 38.222-81.777h50.221z" fill="#fff"/></g></svg>