<svg height="512" viewBox="0 0 100 100" width="512" xmlns="http://www.w3.org/2000/svg"><g id="Layer_50" data-name="Layer 50"><path d="m90.3252 86.3877a10.82764 10.82764 0 1 0 -10.82764 10.82763 10.84022 10.84022 0 0 0 10.82764-10.82763zm-17.65528 0a6.82764 6.82764 0 1 1 6.82764 6.82763 6.83564 6.83564 0 0 1 -6.82764-6.82763z"/><path d="m46.10449 86.3877a10.82788 10.82788 0 1 0 -10.82763 10.82763 10.84021 10.84021 0 0 0 10.82763-10.82763zm-17.65576 0a6.82788 6.82788 0 1 1 6.82813 6.82763 6.83574 6.83574 0 0 1 -6.82813-6.82763z"/><path d="m87.69092 56.90674 9.2583-40.3711a1.99973 1.99973 0 0 0 -1.94922-2.44726h-73.94739l-1.3695-9.58638a2.00019 2.00019 0 0 0 -1.98-1.71728h-12.70311a2 2 0 0 0 0 4h10.96875l9.01318 63.09128a2.00019 2.00019 0 0 0 1.98 1.71728h61.36327a2 2 0 0 0 0-4h-59.62891l-1.30487-9.13379h58.35028a1.99951 1.99951 0 0 0 1.94922-1.55275zm-60.87092-2.44727-5.196-36.37109h70.86526l-8.34082 36.37109z"/></g></svg>